<svg width="215" height="215" viewBox="0 0 215 215" fill="none" xmlns="http://www.w3.org/2000/svg">
<circle cx="107.5" cy="107.5" r="107.5" fill="url(#paint0_linear)"/>
<path d="M94.3214 134.293H119.736C117.336 140.034 112.77 144.599 107.029 147C101.287 144.599 96.7219 140.034 94.3214 134.293ZM128.801 115.442L136.058 123.672V130.664H77.9999V123.672L85.2571 115.442V94.3779C85.2571 81.7394 94.3432 70.9842 107.029 67C119.714 70.9842 128.801 81.7394 128.801 94.3779V115.442ZM107.029 101.635C108.954 101.635 110.799 100.87 112.16 99.5095C113.521 98.1485 114.286 96.3026 114.286 94.3779C114.286 92.4531 113.521 90.6072 112.16 89.2462C110.799 87.8853 108.954 87.1207 107.029 87.1207C105.104 87.1207 103.258 87.8853 101.897 89.2462C100.536 90.6072 99.7716 92.4531 99.7716 94.3779C99.7716 96.3026 100.536 98.1485 101.897 99.5095C103.258 100.87 105.104 101.635 107.029 101.635Z" fill="#F9F2F2"/>
<defs>
<linearGradient id="paint0_linear" x1="-43.5" y1="3.90105e-06" x2="241" y2="242" gradientUnits="userSpaceOnUse">
<stop stop-color="#0062F4"/>
<stop offset="1" stop-color="#26FFF2"/>
</linearGradient>
</defs>
</svg>
