<svg width="215" height="215" viewBox="0 0 215 215" fill="none" xmlns="http://www.w3.org/2000/svg">
<circle cx="107.5" cy="107.5" r="107.5" fill="url(#paint0_linear)"/>
<path d="M72.1579 67H138.684C139.787 67 140.845 67.4436 141.624 68.2332C142.404 69.0229 142.842 70.0938 142.842 71.2105V92.2632C142.842 93.3799 142.404 94.4508 141.624 95.2404C140.845 96.0301 139.787 96.4737 138.684 96.4737H72.1579C71.0552 96.4737 69.9976 96.0301 69.2178 95.2404C68.4381 94.4508 68 93.3799 68 92.2632V71.2105C68 70.0938 68.4381 69.0229 69.2178 68.2332C69.9976 67.4436 71.0552 67 72.1579 67ZM80.4737 104.895H105.421C106.524 104.895 107.581 105.338 108.361 106.128C109.141 106.918 109.579 107.989 109.579 109.105V121.737H113.737V147H97.1053V121.737H101.263V113.316H76.3158C75.213 113.316 74.1555 112.872 73.3757 112.083C72.596 111.293 72.1579 110.222 72.1579 109.105V100.684H80.4737V104.895ZM129.254 112.187L136.605 104.743L143.956 112.187C145.41 113.66 146.4 115.535 146.8 117.577C147.201 119.619 146.995 121.735 146.208 123.659C145.422 125.582 144.089 127.226 142.38 128.382C140.671 129.539 138.661 130.156 136.605 130.156C134.549 130.156 132.54 129.539 130.831 128.382C129.121 127.226 127.789 125.582 127.002 123.659C126.215 121.735 126.009 119.619 126.41 117.577C126.811 115.535 127.801 113.66 129.254 112.187Z" fill="#F9F2F2"/>
<defs>
<linearGradient id="paint0_linear" x1="-43.5" y1="3.90105e-06" x2="241" y2="242" gradientUnits="userSpaceOnUse">
<stop stop-color="#0062F4"/>
<stop offset="1" stop-color="#26FFF2"/>
</linearGradient>
</defs>
</svg>
